<?xml version="1.0" encoding="utf-8"?>
<!-- Generator: Adobe Illustrator 24.1.1, SVG Export Plug-In . SVG Version: 6.00 Build 0)  -->
<svg version="1.1" id="Capa_1" xmlns="http://www.w3.org/2000/svg" xmlns:xlink="http://www.w3.org/1999/xlink" x="0px" y="0px"
	 viewBox="0 0 1280 1024" style="enable-background:new 0 0 1280 1024;" xml:space="preserve">
<style type="text/css">
	.Sombra_x0020_paralela{fill:none;}
	.Resplandor_x0020_externo_x0020_5_x0020_pt_x002E_{fill:none;}
	.Neón_x0020_azul{fill:none;stroke:#8AACDA;stroke-width:7;stroke-linecap:round;stroke-linejoin:round;}
	.Resalte_x0020_cromado{fill:url(#SVGID_1_);stroke:#FFFFFF;stroke-width:0.3629;stroke-miterlimit:1;}
	.A_x0020_todo_x0020_ritmo_GS{fill:#FFDD00;}
	.Alyssa_GS{fill:#A6D0E4;}
	.st0{fill:#A0616A;}
	.st1{fill:#CCCCCC;}
	.st2{fill:#990033;}
	.st3{fill:#2F2E41;}
	.st4{fill:#3F3D56;}
	.st5{fill:#DAA520;}
</style>
<linearGradient id="SVGID_1_" gradientUnits="userSpaceOnUse" x1="0" y1="0" x2="6.123234e-17" y2="-1">
	<stop  offset="0" style="stop-color:#656565"/>
	<stop  offset="0.618" style="stop-color:#1B1B1B"/>
	<stop  offset="0.6292" style="stop-color:#545454"/>
	<stop  offset="0.9831" style="stop-color:#3E3E3E"/>
</linearGradient>
<g>
	<path class="st0" d="M1018.6,603.7c0.8-0.2,1.6-0.4,2.4-0.5l32.2-70.3l-9.8-15.8l20.3-19.1l25.5,33.6l-52,81.3
		c3.5,8.4,0,18.2-7.8,21.9c-7.8,3.7-16.9,0-20.4-8.4c-3.5-8.4,0-18.2,7.8-21.9C1017.3,604.2,1017.9,603.9,1018.6,603.7L1018.6,603.7
		z"/>
	<path class="st1" d="M1073.6,507.7c-0.4,0.5-0.9,0.9-1.5,1.3l-33,20.5c-3.2,2-7.2,0.8-9-2.6c-0.1-0.2-0.2-0.3-0.3-0.5l-16-36.4
		c-1.4-3.2-0.4-7,2.3-8.9l20.4-14.9c2.6-1.9,6.2-1.6,8.4,0.9l28.6,30.8C1076,500.5,1076,504.9,1073.6,507.7L1073.6,507.7z"/>
	<polygon class="st0" points="1119.8,910.5 1102.4,915.6 1075.9,845.9 1101.6,838.4 	"/>
	<path class="st2" d="M1088.7,913.9l33.6-9.8l0,0l5.8,22.7l0,0l-54.7,16l0,0l0,0C1070.1,930.2,1077,917.3,1088.7,913.9z"/>
	<polygon class="st0" points="971,924.7 953,924.7 944.4,850 971,850 	"/>
	<path class="st2" d="M940.1,919.2h34.8l0,0v23.5l0,0h-56.7l0,0l0,0C918.2,929.7,928,919.2,940.1,919.2z"/>
	<ellipse class="st0" cx="990.1" cy="402.6" rx="36.1" ry="38.8"/>
	<path class="st2" d="M969.9,871.5h-24.7c-3.5,0-6.4-2.9-6.6-6.7c-7.3-125.4-3-215.3,13.5-283c0.1-0.3,0.2-0.6,0.3-0.9l1.3-3.5
		c1-2.7,3.4-4.5,6.1-4.5h50.7c1.9,0,3.8,0.9,5,2.5l6.9,8.6c0.1,0.2,0.3,0.3,0.4,0.5c31,46.5,58.9,137.4,91.1,259.5
		c1,3.7-0.9,7.6-4.4,8.7l-26.5,9.1c-3.1,1.1-6.5-0.5-8-3.7l-68.7-153.1c-1.2-2.8-4.3-3.9-6.9-2.6c-1.6,0.8-2.6,2.4-2.9,4.2
		l-20.2,158.6C976,868.8,973.2,871.5,969.9,871.5z"/>
	<path class="st1" d="M1019.8,584.7c-0.1,0-0.1,0-0.2,0l-61.6-2.1c-3.3-0.1-6-2.8-6.4-6.2c-7.8-67.8,13.6-86,23.2-90.7
		c1.6-0.8,2.7-2.4,3-4.3l0.8-7.1c0.1-1.3,0.6-2.4,1.3-3.5c15-20.9,35.5-27.5,46.4-29.7c3.6-0.7,7,1.9,7.7,5.7c0,0.1,0,0.2,0.1,0.4
		l1.2,10.2c0.1,1,0.5,1.9,1,2.7c31.3,43.9-3.6,108.7-10.9,121.3l0,0C1024.2,583.4,1022,584.7,1019.8,584.7z"/>
	<path class="st3" d="M1063,406.9c-8.1-12.2-17.7-23.1-28.7-32.3c-9.1-7.6-19.3-14.2-30.5-17.3c-11.2-3.1-23.6-2.6-33.8,3.2
		c-10.2,5.8-20.8,17.4-20.8,29.8c0,4,0.9,9.4,4.6,8.7l1.1,0.2c8.8-1.9,17.7-3.8,26.5-5.7c3.8,14,7.5,28,11.3,42
		c0.8,3,1.9,6.3,4.5,7.5c2.5,1.2,5.3,0.1,7.8-1c0.4-0.2,3.9-8.7,3.9-8.7c0.3-0.8,1.1-1.2,1.9-1c0.3,0.1,0.5,0.3,0.7,0.5l2.1,2.8
		c0.8,1.1,2.2,1.5,3.4,0.9c14.4-6.5,28.8-12.9,43.2-19.4c2-0.9,4.2-2.1,4.8-4.3C1065.4,410.9,1064.2,408.8,1063,406.9z"/>
	<path class="st4" d="M1228.5,944.1H785.6c-0.8,0-1.5-0.7-1.5-1.6c0-0.9,0.7-1.6,1.5-1.6h442.9c0.8,0,1.5,0.7,1.5,1.6
		C1230,943.4,1229.3,944.1,1228.5,944.1z"/>
	<path class="st5" d="M988.4,698c-1,0-2-0.4-2.8-1l-6.7-5.2c-1.1-0.9-2.7-0.9-3.8,0l-6.7,5.2c-2.1,1.6-5.1,1.1-6.6-1.1
		c-0.9-1.3-1.1-3-0.7-4.6l2.6-8.5c0.4-1.4,0-3-1.2-3.9l-6.7-5.2c-2.1-1.6-2.6-4.8-1-7.1c0.9-1.3,2.3-2.1,3.8-2.1h8.3
		c1.4,0,2.7-1,3.1-2.4l2.6-8.5c0.8-2.7,3.5-4.1,6-3.3c1.4,0.5,2.6,1.7,3,3.3l2.6,8.5c0.4,1.4,1.7,2.4,3.1,2.4h8.3
		c2.6,0,4.7,2.3,4.7,5.1c0,1.6-0.7,3.2-1.9,4.1l-6.7,5.2c-1.1,0.9-1.6,2.5-1.2,3.9l2.6,8.5c0.7,2.1,0,4.4-1.7,5.7
		C990.4,697.6,989.4,698,988.4,698z"/>
	<path class="st0" d="M1014,681.1c7.1-5.4,8.9-16,3.9-23.6c-0.5-0.8-1.1-1.6-1.8-2.3l11.4-148.3l-34.1,5L992.8,656
		c-5.8,7.1-5.1,17.9,1.5,24.1C999.9,685.2,1008,685.6,1014,681.1z"/>
	<path class="st1" d="M1029.7,528.2c-0.6,0-1.3-0.1-1.9-0.3l-36.6-11.5c-3.5-1.1-5.5-5.1-4.5-8.8c0.1-0.2,0.1-0.4,0.2-0.6l13.5-37.5
		c1.2-3.3,4.4-5.1,7.6-4.4l24.2,5.6c3.1,0.7,5.3,3.7,5.2,7.1l-1.1,43.4C1036.3,525.1,1033.3,528.2,1029.7,528.2L1029.7,528.2z"/>
	<path class="st4" d="M685.6,713.5H60.3c-5.7,0-10.3-5-10.3-11.1V501.8c0-6.1,4.6-11.1,10.3-11.1h625.3c5.7,0,10.3,5,10.3,11.1
		v200.6C695.9,708.6,691.3,713.5,685.6,713.5z M60.3,493.9c-4.1,0-7.4,3.5-7.4,7.9v200.6c0,4.4,3.3,7.9,7.4,7.9h625.3
		c4.1,0,7.4-3.5,7.4-7.9V501.8c0-4.4-3.3-7.9-7.4-7.9H60.3z"/>
	<path class="st5" d="M333.9,798c-1.2,0-2.4-0.4-3.4-1.2l-8.2-6.4c-1.4-1.1-3.3-1.1-4.7,0l-8.2,6.4c-2.6,2-6.2,1.4-8.1-1.4
		c-1.1-1.6-1.4-3.7-0.8-5.6l3.1-10.4c0.5-1.8,0-3.7-1.4-4.8l-8.2-6.4c-2.6-2-3.2-5.9-1.3-8.7c1.1-1.6,2.8-2.6,4.7-2.6h10.1
		c1.7,0,3.3-1.2,3.8-3l3.1-10.4c1-3.3,4.3-5.1,7.3-4c1.8,0.6,3.1,2.1,3.7,4l3.1,10.4c0.5,1.8,2.1,3,3.8,3h10.1
		c3.2,0,5.8,2.8,5.8,6.2c0,2-0.9,3.9-2.4,5l-8.2,6.4c-1.4,1.1-2,3-1.4,4.8l3.1,10.4c0.8,2.6-0.1,5.4-2.1,7
		C336.4,797.6,335.2,798,333.9,798z"/>
	<path class="st5" d="M417.1,798c-1.2,0-2.4-0.4-3.4-1.2l-8.2-6.4c-1.4-1.1-3.3-1.1-4.7,0l-8.2,6.4c-2.6,2-6.2,1.4-8.1-1.4
		c-1.1-1.6-1.4-3.7-0.8-5.6l3.1-10.4c0.5-1.8,0-3.7-1.4-4.8l-8.2-6.4c-2.6-2-3.2-5.9-1.3-8.7c1.1-1.6,2.8-2.6,4.7-2.6h10.1
		c1.7,0,3.3-1.2,3.8-3l3.1-10.4c1-3.3,4.3-5.1,7.3-4c1.8,0.6,3.1,2.1,3.7,4l3.1,10.4c0.5,1.8,2.1,3,3.8,3h10.1
		c3.2,0,5.8,2.8,5.8,6.2c0,2-0.9,3.9-2.4,5l-8.2,6.4c-1.4,1.1-2,3-1.4,4.8l3.1,10.4c0.8,2.6-0.1,5.4-2.1,7
		C419.5,797.6,418.3,798,417.1,798z"/>
	<path class="st5" d="M500.2,798c-1.2,0-2.4-0.4-3.4-1.2l-8.2-6.4c-1.4-1.1-3.3-1.1-4.7,0l-8.2,6.4c-2.6,2-6.2,1.4-8.1-1.4
		c-1.1-1.6-1.4-3.7-0.8-5.6l3.1-10.4c0.5-1.8,0-3.7-1.4-4.8l-8.2-6.4c-2.6-2-3.2-5.9-1.3-8.7c1.1-1.6,2.8-2.6,4.7-2.6h10.1
		c1.7,0,3.3-1.2,3.8-3l3.1-10.4c1-3.3,4.3-5.1,7.3-4c1.8,0.6,3.1,2.1,3.7,4l3.1,10.4c0.5,1.8,2.1,3,3.8,3h10.1
		c3.2,0,5.8,2.8,5.8,6.2c0,2-0.9,3.9-2.4,5l-8.2,6.4c-1.4,1.1-2,3-1.4,4.8l3.1,10.4c0.8,2.6-0.1,5.4-2.1,7
		C502.7,797.6,501.5,798,500.2,798z"/>
	<path class="st5" d="M583.4,798c-1.2,0-2.4-0.4-3.4-1.2l-8.2-6.4c-1.4-1.1-3.3-1.1-4.7,0l-8.2,6.4c-2.6,2-6.2,1.4-8.1-1.4
		c-1.1-1.6-1.4-3.7-0.8-5.6l3.1-10.4c0.5-1.8,0-3.7-1.4-4.8l-8.2-6.4c-2.6-2-3.2-5.9-1.3-8.7c1.1-1.6,2.8-2.6,4.7-2.6H557
		c1.7,0,3.3-1.2,3.8-3l3.1-10.4c1-3.3,4.3-5.1,7.3-4c1.8,0.6,3.1,2.1,3.7,4l3.1,10.4c0.5,1.8,2.1,3,3.8,3H592c3.2,0,5.8,2.8,5.8,6.2
		c0,2-0.9,3.9-2.4,5l-8.2,6.4c-1.4,1.1-2,3-1.4,4.8l3.1,10.4c0.8,2.6-0.1,5.4-2.1,7C585.8,797.6,584.6,798,583.4,798z"/>
	<path class="st4" d="M638.6,798.6c-1.3,0-2.7-0.5-3.7-1.3c-2.3-1.7-3.2-4.8-2.3-7.6l3.1-10.4c0.5-1.5,0-3.2-1.2-4.1l-8.2-6.4
		c-2.8-2.2-3.5-6.5-1.4-9.5c1.2-1.8,3.1-2.8,5.1-2.8h10.1c1.5,0,2.8-1,3.3-2.5l3.1-10.4c1.1-3.6,4.7-5.6,8-4.4
		c1.9,0.7,3.5,2.3,4.1,4.4l3.1,10.4c0.5,1.5,1.8,2.5,3.3,2.5h10.1c3.5,0,6.4,3.1,6.4,6.8c0,2.2-1,4.2-2.6,5.5l-8.2,6.4
		c-1.2,0.9-1.7,2.6-1.2,4.1l3.1,10.4c1.1,3.6-0.7,7.4-4.1,8.6c-1.9,0.7-4.1,0.3-5.7-1l-8.2-6.4c-1.2-0.9-2.8-0.9-4,0l-8.2,6.4
		C641.3,798.1,640,798.6,638.6,798.6z M652.6,787c1.3,0,2.7,0.5,3.7,1.3l8.2,6.4c1.5,1.2,3.7,0.8,4.8-0.8c0.6-1,0.8-2.2,0.5-3.3
		l-3.1-10.4c-0.9-2.8,0.1-5.9,2.3-7.6l8.2-6.4c1.5-1.2,1.9-3.5,0.8-5.1c-0.6-1-1.7-1.5-2.8-1.5H665c-2.8,0-5.2-1.9-6.1-4.7
		l-3.1-10.4c-0.6-1.9-2.5-3-4.3-2.4c-1,0.4-1.9,1.2-2.2,2.4l-3.1,10.4c-0.8,2.8-3.3,4.7-6.1,4.7H630c-1.9,0-3.4,1.6-3.4,3.7
		c0,1.2,0.5,2.3,1.4,3l8.2,6.4c2.2,1.7,3.2,4.8,2.3,7.6l-3.1,10.4c-0.6,1.9,0.4,4,2.2,4.6c1,0.4,2.2,0.2,3.1-0.5l8.2-6.4
		C649.9,787.5,651.2,787,652.6,787z"/>
	<path class="st1" d="M130.9,538.2c-5.3,0-9.6,4.6-9.6,10.3c0,5.7,4.3,10.3,9.6,10.3H615c5.3,0,9.6-4.6,9.6-10.3
		c0-5.7-4.3-10.3-9.6-10.3H130.9z"/>
	<path class="st1" d="M130.9,591.9c-5.3,0-9.6,4.6-9.6,10.3s4.3,10.3,9.6,10.3H615c5.3,0,9.6-4.6,9.6-10.3s-4.3-10.3-9.6-10.3H130.9
		z"/>
	<path class="st1" d="M130.9,645.6c-5.3,0-9.6,4.6-9.6,10.3s4.3,10.3,9.6,10.3H615c5.3,0,9.6-4.6,9.6-10.3s-4.3-10.3-9.6-10.3H130.9
		z"/>
	<path class="st1" d="M130.9,538.2c-5.3,0-9.6,4.6-9.6,10.3c0,5.7,4.3,10.3,9.6,10.3H615c5.3,0,9.6-4.6,9.6-10.3
		c0-5.7-4.3-10.3-9.6-10.3H130.9z"/>
	<path class="st1" d="M130.9,591.9c-5.3,0-9.6,4.6-9.6,10.3s4.3,10.3,9.6,10.3H615c5.3,0,9.6-4.6,9.6-10.3s-4.3-10.3-9.6-10.3H130.9
		z"/>
	<path class="st1" d="M130.9,645.6c-5.3,0-9.6,4.6-9.6,10.3s4.3,10.3,9.6,10.3H615c5.3,0,9.6-4.6,9.6-10.3s-4.3-10.3-9.6-10.3H130.9
		z"/>
	<path class="st4" d="M685.6,318.6H60.3c-5.7,0-10.3-5-10.3-11.1V106.9c0-6.1,4.6-11.1,10.3-11.1h625.3c5.7,0,10.3,5,10.3,11.1
		v200.6C695.9,313.6,691.3,318.6,685.6,318.6z M60.3,99c-4.1,0-7.4,3.5-7.4,7.9v200.6c0,4.4,3.3,7.9,7.4,7.9h625.3
		c4.1,0,7.4-3.5,7.4-7.9V106.9c0-4.4-3.3-7.9-7.4-7.9H60.3z"/>
	<path class="st5" d="M333.9,403.1c-1.2,0-2.4-0.4-3.4-1.2l-8.2-6.4c-1.4-1.1-3.3-1.1-4.7,0l-8.2,6.4c-2.6,2-6.2,1.4-8.1-1.4
		c-1.1-1.6-1.4-3.7-0.8-5.6l3.1-10.4c0.5-1.8,0-3.7-1.4-4.8l-8.2-6.4c-2.6-2-3.2-5.9-1.3-8.7c1.1-1.6,2.8-2.6,4.7-2.6h10.1
		c1.7,0,3.3-1.2,3.8-3l3.1-10.4c1-3.3,4.3-5.1,7.3-4c1.8,0.6,3.1,2.1,3.7,4l3.1,10.4c0.5,1.8,2.1,3,3.8,3h10.1
		c3.2,0,5.8,2.8,5.8,6.2c0,2-0.9,3.9-2.4,5l-8.2,6.4c-1.4,1.1-2,3-1.4,4.8l3.1,10.4c0.8,2.6-0.1,5.4-2.1,7
		C336.4,402.6,335.2,403.1,333.9,403.1z"/>
	<path class="st5" d="M417.1,403.1c-1.2,0-2.4-0.4-3.4-1.2l-8.2-6.4c-1.4-1.1-3.3-1.1-4.7,0l-8.2,6.4c-2.6,2-6.2,1.4-8.1-1.4
		c-1.1-1.6-1.4-3.7-0.8-5.6l3.1-10.4c0.5-1.8,0-3.7-1.4-4.8l-8.2-6.4c-2.6-2-3.2-5.9-1.3-8.7c1.1-1.6,2.8-2.6,4.7-2.6h10.1
		c1.7,0,3.3-1.2,3.8-3l3.1-10.4c1-3.3,4.3-5.1,7.3-4c1.8,0.6,3.1,2.1,3.7,4l3.1,10.4c0.5,1.8,2.1,3,3.8,3h10.1
		c3.2,0,5.8,2.8,5.8,6.2c0,2-0.9,3.9-2.4,5l-8.2,6.4c-1.4,1.1-2,3-1.4,4.8l3.1,10.4c0.8,2.6-0.1,5.4-2.1,7
		C419.5,402.6,418.3,403.1,417.1,403.1z"/>
	<path class="st5" d="M500.2,403.1c-1.2,0-2.4-0.4-3.4-1.2l-8.2-6.4c-1.4-1.1-3.3-1.1-4.7,0l-8.2,6.4c-2.6,2-6.2,1.4-8.1-1.4
		c-1.1-1.6-1.4-3.7-0.8-5.6l3.1-10.4c0.5-1.8,0-3.7-1.4-4.8l-8.2-6.4c-2.6-2-3.2-5.9-1.3-8.7c1.1-1.6,2.8-2.6,4.7-2.6h10.1
		c1.7,0,3.3-1.2,3.8-3l3.1-10.4c1-3.3,4.3-5.1,7.3-4c1.8,0.6,3.1,2.1,3.7,4l3.1,10.4c0.5,1.8,2.1,3,3.8,3h10.1
		c3.2,0,5.8,2.8,5.8,6.2c0,2-0.9,3.9-2.4,5l-8.2,6.4c-1.4,1.1-2,3-1.4,4.8l3.1,10.4c0.8,2.6-0.1,5.4-2.1,7
		C502.7,402.6,501.5,403.1,500.2,403.1z"/>
	<path class="st4" d="M638.6,403.7c-1.3,0-2.7-0.5-3.7-1.3c-2.3-1.7-3.2-4.8-2.3-7.6l3.1-10.4c0.5-1.5,0-3.2-1.2-4.1l-8.2-6.4
		c-2.8-2.2-3.5-6.5-1.4-9.5c1.2-1.8,3.1-2.8,5.1-2.8h10.1c1.5,0,2.8-1,3.3-2.5l3.1-10.4c1.1-3.6,4.7-5.6,8-4.4
		c1.9,0.7,3.5,2.3,4.1,4.4l3.1,10.4c0.5,1.5,1.8,2.5,3.3,2.5h10.1c3.5,0,6.4,3.1,6.4,6.8c0,2.2-1,4.2-2.6,5.5l-8.2,6.4
		c-1.2,0.9-1.7,2.6-1.2,4.1l3.1,10.4c1.1,3.6-0.7,7.4-4.1,8.6c-1.9,0.7-4.1,0.3-5.7-1l-8.2-6.4c-1.2-0.9-2.8-0.9-4,0l-8.2,6.4
		C641.3,403.2,640,403.7,638.6,403.7z M652.6,392.1c1.3,0,2.7,0.5,3.7,1.3l8.2,6.4c1.5,1.2,3.7,0.8,4.8-0.8c0.6-1,0.8-2.2,0.5-3.3
		l-3.1-10.4c-0.9-2.8,0.1-5.9,2.3-7.6l8.2-6.4c1.5-1.2,1.9-3.5,0.8-5.1c-0.6-1-1.7-1.5-2.8-1.5H665c-2.8,0-5.2-1.9-6.1-4.7
		l-3.1-10.4c-0.6-1.9-2.5-3-4.3-2.4c-1,0.4-1.9,1.2-2.2,2.4l-3.1,10.4c-0.8,2.8-3.3,4.7-6.1,4.7H630c-1.9,0-3.4,1.6-3.4,3.7
		c0,1.2,0.5,2.3,1.4,3l8.2,6.4c2.2,1.7,3.2,4.8,2.3,7.6l-3.1,10.4c-0.6,1.9,0.4,4,2.2,4.6c1,0.4,2.2,0.2,3.1-0.5l8.2-6.4
		C649.9,392.5,651.2,392.1,652.6,392.1z"/>
	<path class="st4" d="M554.8,403.4c-1.3,0-2.7-0.5-3.7-1.3c-2.3-1.7-3.2-4.8-2.3-7.6l3.1-10.4c0.5-1.5,0-3.2-1.2-4.1l-8.2-6.4
		c-2.8-2.2-3.5-6.5-1.4-9.5c1.2-1.8,3.1-2.8,5.1-2.8h10.1c1.5,0,2.8-1,3.3-2.5l3.1-10.4c1.1-3.6,4.7-5.6,8-4.4
		c1.9,0.7,3.5,2.3,4.1,4.4l3.1,10.4c0.5,1.5,1.8,2.5,3.3,2.5h10.1c3.5,0,6.4,3.1,6.4,6.8c0,2.2-1,4.2-2.6,5.5l-8.2,6.4
		c-1.2,0.9-1.7,2.6-1.2,4.1l3.1,10.4c1.1,3.6-0.7,7.4-4.1,8.6c-1.9,0.7-4.1,0.3-5.7-1l-8.2-6.4c-1.2-0.9-2.8-0.9-4,0l-8.2,6.4
		C557.4,403,556.1,403.4,554.8,403.4z M568.7,391.8c1.3,0,2.7,0.5,3.7,1.3l8.2,6.4c1.5,1.2,3.7,0.8,4.8-0.8c0.6-1,0.8-2.2,0.5-3.3
		l-3.1-10.4c-0.9-2.8,0.1-5.9,2.3-7.6l8.2-6.4c1.5-1.2,1.9-3.5,0.8-5.1c-0.6-1-1.7-1.5-2.8-1.5h-10.1c-2.8,0-5.2-1.9-6.1-4.7
		l-3.1-10.4c-0.6-1.9-2.5-3-4.3-2.4c-1,0.4-1.9,1.2-2.2,2.4l-3.1,10.4c-0.8,2.8-3.3,4.7-6.1,4.7h-10.1c-1.9,0-3.4,1.6-3.4,3.7
		c0,1.2,0.5,2.3,1.4,3l8.2,6.4c2.2,1.7,3.2,4.8,2.3,7.6l-3.1,10.4c-0.6,1.9,0.4,4,2.2,4.6c1,0.4,2.2,0.2,3.1-0.5l8.2-6.4
		C566.1,392.3,567.4,391.8,568.7,391.8z"/>
	<path class="st1" d="M130.9,143.3c-5.3,0-9.6,4.6-9.6,10.3c0,5.7,4.3,10.3,9.6,10.3H615c5.3,0,9.6-4.6,9.6-10.3
		c0-5.7-4.3-10.3-9.6-10.3H130.9z"/>
	<path class="st1" d="M130.9,197c-5.3,0-9.6,4.6-9.6,10.3c0,5.7,4.3,10.3,9.6,10.3H615c5.3,0,9.6-4.6,9.6-10.3
		c0-5.7-4.3-10.3-9.6-10.3H130.9z"/>
	<path class="st1" d="M130.9,250.7c-5.3,0-9.6,4.6-9.6,10.3c0,5.7,4.3,10.3,9.6,10.3H615c5.3,0,9.6-4.6,9.6-10.3
		c0-5.7-4.3-10.3-9.6-10.3H130.9z"/>
	<path class="st1" d="M130.9,143.3c-5.3,0-9.6,4.6-9.6,10.3c0,5.7,4.3,10.3,9.6,10.3H615c5.3,0,9.6-4.6,9.6-10.3
		c0-5.7-4.3-10.3-9.6-10.3H130.9z"/>
	<path class="st1" d="M130.9,197c-5.3,0-9.6,4.6-9.6,10.3c0,5.7,4.3,10.3,9.6,10.3H615c5.3,0,9.6-4.6,9.6-10.3
		c0-5.7-4.3-10.3-9.6-10.3H130.9z"/>
	<path class="st1" d="M130.9,250.7c-5.3,0-9.6,4.6-9.6,10.3c0,5.7,4.3,10.3,9.6,10.3H615c5.3,0,9.6-4.6,9.6-10.3
		c0-5.7-4.3-10.3-9.6-10.3H130.9z"/>
</g>
</svg>
