<?xml version="1.0" encoding="utf-8"?>
<!-- Generator: Adobe Illustrator 24.1.1, SVG Export Plug-In . SVG Version: 6.00 Build 0)  -->
<svg version="1.1" id="Capa_1" xmlns="http://www.w3.org/2000/svg" xmlns:xlink="http://www.w3.org/1999/xlink" x="0px" y="0px"
	 viewBox="0 0 1280 1024" style="enable-background:new 0 0 1280 1024;" xml:space="preserve">
<style type="text/css">
	.st0{fill:#CCCCCC;}
	.st1{fill:#3F3D56;}
	.st2{fill:#CC0000;}
	.st3{fill:#6C63FF;}
	.st4{fill:#FFB8B8;}
	.st5{fill:#663366;}
	.st6{fill:#2F2E41;}
	.st7{fill:#666666;}
	.st8{fill:#007633;}
	.st9{fill:#003300;}
</style>
<g>
	<path class="st0" d="M68.8,357c-0.8,0-1.7-0.2-2.4-0.5c-2.6-1-4.3-3.5-4.3-6.2v-69.7c0-4.9-4-8.9-8.9-8.9H38.9
		c-12.3,0-22.2-10-22.2-22.2V109.4c0-12.3,10-22.2,22.2-22.2h503.4c12.3,0,22.2,10,22.2,22.2v140.1c0,12.3-10,22.2-22.2,22.2H153.8
		c-2.5,0-4.9,1-6.6,2.9l-73.5,80.2C72.4,356.2,70.7,357,68.8,357z M38.9,90.1c-10.6,0-19.3,8.6-19.3,19.3v140.1
		c0,10.6,8.6,19.3,19.3,19.3h14.3c6.5,0,11.9,5.3,11.9,11.9v69.7c0,2,1.7,3.7,3.7,3.7c1,0,2-0.4,2.7-1.2l73.5-80.2
		c2.2-2.4,5.4-3.8,8.7-3.8h388.5c10.6,0,19.3-8.6,19.3-19.3V109.4c0-10.6-8.6-19.3-19.3-19.3H38.9z"/>
	<circle class="st0" cx="71.2" cy="130.8" r="19.5"/>
	<path class="st0" d="M519.6,238.5h-458c-5.7,0-10.4-4.6-10.4-10.4c0-5.7,4.6-10.4,10.4-10.4c0,0,0,0,0,0h458
		c5.7,0,10.4,4.6,10.4,10.4C530,233.8,525.4,238.5,519.6,238.5C519.6,238.5,519.6,238.5,519.6,238.5z"/>
	<path class="st0" d="M370.4,194.4H61.6c-5.7,0-10.4-4.6-10.4-10.4c0-5.7,4.6-10.4,10.4-10.4c0,0,0,0,0,0h308.8
		c5.7,0,10.4,4.6,10.4,10.4C380.8,189.7,376.2,194.4,370.4,194.4C370.4,194.4,370.4,194.4,370.4,194.4z"/>
	<path class="st0" d="M68.8,851.3c-0.8,0-1.7-0.2-2.4-0.5c-2.6-1-4.3-3.5-4.3-6.2v-69.7c0-4.9-4-8.9-8.9-8.9H38.9
		c-12.3,0-22.2-10-22.2-22.2V603.7c0-12.3,10-22.2,22.2-22.2h503.4c12.3,0,22.2,10,22.2,22.2v140.1c0,12.3-10,22.2-22.2,22.2H153.8
		c-2.5,0-4.9,1-6.6,2.9l-73.5,80.2C72.4,850.5,70.7,851.3,68.8,851.3z M38.9,584.4c-10.6,0-19.3,8.6-19.3,19.3v140.1
		c0,10.6,8.6,19.3,19.3,19.3h14.3c6.5,0,11.9,5.3,11.9,11.9v69.7c0,2,1.7,3.7,3.7,3.7c1,0,2-0.4,2.7-1.2l73.5-80.2
		c2.2-2.4,5.4-3.8,8.7-3.8h388.5c10.6,0,19.3-8.6,19.3-19.3V603.7c0-10.6-8.6-19.3-19.3-19.3L38.9,584.4z"/>
	<path class="st1" d="M812.1,594.4c-1.9,0-3.6-0.8-4.9-2.2L733.7,512c-1.7-1.8-4.1-2.9-6.6-2.9H338.6c-12.3,0-22.2-10-22.2-22.2
		V346.8c0-12.3,10-22.2,22.2-22.2H842c12.3,0,22.2,10,22.2,22.2v140.1c0,12.3-10,22.2-22.2,22.2h-14.3c-4.9,0-8.9,4-8.9,8.9v69.7
		c0,2.8-1.7,5.2-4.3,6.2C813.8,594.3,813,594.4,812.1,594.4z M338.6,327.5c-10.6,0-19.3,8.6-19.3,19.3v140.1
		c0,10.6,8.6,19.3,19.3,19.3h388.5c3.3,0,6.5,1.4,8.7,3.8l73.5,80.2c1.4,1.5,3.7,1.6,5.2,0.2c0.8-0.7,1.2-1.7,1.2-2.7v-69.7
		c0-6.5,5.3-11.9,11.9-11.9H842c10.6,0,19.3-8.6,19.3-19.3V346.8c0-10.6-8.6-19.3-19.3-19.3L338.6,327.5z"/>
	<circle class="st0" cx="71.2" cy="625.1" r="19.5"/>
	<path class="st0" d="M519.6,732.8h-458c-5.7,0-10.4-4.6-10.4-10.4c0-5.7,4.6-10.4,10.4-10.4c0,0,0,0,0,0h458
		c5.7,0,10.4,4.6,10.4,10.4C530,728.1,525.3,732.8,519.6,732.8C519.6,732.8,519.6,732.8,519.6,732.8z"/>
	<path class="st0" d="M370.4,688.7H61.6c-5.7,0-10.4-4.6-10.4-10.4s4.6-10.4,10.4-10.4c0,0,0,0,0,0h308.8c5.7,0,10.4,4.6,10.4,10.4
		C380.8,684,376.2,688.6,370.4,688.7C370.4,688.7,370.4,688.7,370.4,688.7z"/>
	<circle class="st2" cx="370.9" cy="366.9" r="19.5"/>
	<path class="st3" d="M819.3,474.6h-458c-5.7,0-10.4-4.6-10.4-10.4c0-5.7,4.6-10.4,10.4-10.4c0,0,0,0,0,0h458
		c5.7,0,10.4,4.6,10.4,10.4S825,474.6,819.3,474.6C819.3,474.6,819.3,474.6,819.3,474.6z"/>
	<path class="st3" d="M670.1,430.5H361.3c-5.7,0-10.4-4.6-10.4-10.4c0-5.7,4.6-10.4,10.4-10.4c0,0,0,0,0,0h308.8
		c5.7,0,10.4,4.6,10.4,10.4C680.5,425.8,675.9,430.5,670.1,430.5C670.1,430.5,670.1,430.5,670.1,430.5z"/>
	<path class="st4" d="M819.1,621.1c1.7-8.1,9.6-13.2,17.6-11.5c0.9,0.2,1.7,0.4,2.5,0.8l34.8-39.9l7.4,26.5l-34.1,33.9
		c-3.6,7.5-12.5,10.6-20,7C821,634.7,817.6,627.9,819.1,621.1L819.1,621.1z"/>
	<circle class="st4" cx="1009.9" cy="397.3" r="36.4"/>
	<polygon class="st4" points="967.1,898.2 948.9,898.2 940.3,828.1 967.1,828.1 	"/>
	<path class="st2" d="M971.7,915.8l-58.6,0v-0.7c0-12.6,10.2-22.8,22.8-22.8c0,0,0,0,0,0h0l35.8,0L971.7,915.8z"/>
	<polygon class="st4" points="1021.9,917.4 1003.8,917.4 1001.2,849.1 1021.9,847.4 	"/>
	<path class="st2" d="M1026.6,935.1l-58.6,0v-0.7c0-12.6,10.2-22.8,22.8-22.8c0,0,0,0,0,0h0l35.8,0L1026.6,935.1z"/>
	<path class="st5" d="M1016.8,904.7l-14.1-1.7c-3.3-0.4-5.8-3.2-5.9-6.5l-2.7-184.2c0-1.2-1-2.2-2.3-2.2c-0.9,0-1.8,0.6-2.1,1.5
		l-19.6,55.4l1.4,103.9c0,3.6-2.7,6.5-6.3,6.7l-18.5,0.8c-3.5,0.2-6.6-2.3-7-5.8L930.1,755l0-0.1l14.6-122.7l109.9,8l-30.5,258.6
		c-0.4,3.4-3.2,5.9-6.6,5.9C1017.3,904.7,1017,904.7,1016.8,904.7z"/>
	<path class="st3" d="M945.2,643.1c-2-1.1-3.3-3.1-3.5-5.4c0,0,9.9-61.5,13.5-62.6l-7.9-65.7c-1.9-16.2,2.8-32.5,13-45.2
		c9.9-12.3,24.3-20.1,40.1-21.5c1.1-0.1,2.2-0.2,3.3-0.2c19-1,37.4,7.3,49.1,22.3c12.2,15.2,16.2,35.3,10.7,53.9l-4.4,15.5v108.1
		c0,2.1-1,4.1-2.8,5.4c-13.8,10.2-29.5,13.7-44.7,13.7C982.8,661.6,955.6,648.7,945.2,643.1z"/>
	<path class="st3" d="M859.9,623.3L840.8,609c-2.9-2.2-3.6-6.4-1.3-9.3c0.1-0.2,0.3-0.4,0.5-0.6L953.8,477c7.6-8,19.8-9.3,28.9-3.1
		l0,0c10.1,7,12.5,20.8,5.5,30.9c-0.8,1.1-1.7,2.2-2.7,3.1l-117,114.8c-2.1,2.1-5.4,2.5-7.9,1C860.4,623.7,860.1,623.5,859.9,623.3z
		"/>
	<path class="st4" d="M1006.2,607.2c3.2-7.6,11.9-11.2,19.5-8c0.8,0.3,1.6,0.7,2.3,1.2l41.6-32.7l2.3,27.4l-39.9,26.9
		c-4.9,6.7-14.3,8.1-21,3.1C1005.5,620.9,1003.5,613.5,1006.2,607.2z"/>
	<path class="st3" d="M1043.5,619.9c-2.2-0.7-3.9-2.5-4.5-4.8l-4.2-17.7c-0.6-2.6,0.3-5.3,2.4-6.8l28.3-30.6l-41.6-64.2
		c-6.5-8-6.8-19.3-0.7-27.6c7.4-10.1,21.5-12.2,31.6-4.9c3.2,2.4,5.8,5.6,7.4,9.3l38.7,75.3c8,15.5,3,34.5-11.4,44.1l-39.5,26.4
		c-1.2,1.1-2.8,1.7-4.4,1.7C1044.8,620.3,1044.1,620.1,1043.5,619.9z"/>
	<path class="st6" d="M1036.8,429.8c-3.1,1.9-7.1,0.9-8.9-2.2c-0.3-0.5-0.5-1-0.7-1.6l0-0.1c-0.7-3-0.2-6.2,0-9.3
		c0.2-3.1-0.1-6.5-2.3-8.8c-4-4.2-11-1.9-16.7-3c-6.9-1.5-11.7-7.9-11-15c0.1-0.6,0.2-1.3,0.3-1.9c1.2-5.9-2.5-11.6-8.4-12.9
		c-1-0.2-2-0.3-3-0.2c-5.8,0.4-12,2.1-16.8-2.1c-3.6-3.4-4.8-8.7-3-13.3c2.7-7.9,10.4-12,18-14.3c19.1-5.6,39.7-2.4,56,8.9
		c4.8,3.4,9.4,7.6,11.4,13.1s1.1,12.5-3.5,16.2c7.3,7.7,10,18.7,7.1,28.9C1053.2,419.5,1042.3,426.6,1036.8,429.8z"/>
	<path class="st7" d="M1265.4,934.7c0,0.8-0.7,1.5-1.5,1.5H699.4c-0.8,0-1.5-0.7-1.5-1.5s0.7-1.5,1.5-1.5h564.5
		C1264.7,933.2,1265.4,933.9,1265.4,934.7z"/>
	<g>
		<g>
			<path class="st8" d="M1202.8,935.2c-32.3,0-55.9-6.2-74.5-19.6c-29.4-21.1-44.4-62.2-38.4-104.7c2.3-16.3,9.9-46,34.4-61.4
				c8.1-4.9,17.3-7.5,26.8-7.5c3.4,0,6.9,0.3,10.2,1c0.3,0.1,0.6,0.1,1,0.2c11.4,2.6,20.5,8.9,25.6,17.9c9.4,16.7,4.2,37.8-0.4,56.4
				l-0.5,1.8c-4.3,17.3-8.3,42.2,6.7,57.5l1.5,1.6l-0.7-2.1c-2.1-6.1-2.5-12.7-1.1-19c3.5-16,18-27.6,34.3-27.6
				c2.6,0,5.1,0.3,7.7,0.8c1.1,0.2,2.1,0.5,3,0.7c2.3,0.7,4.6,1.6,6.7,2.8c17.2,9.6,22.7,31.4,20.5,48.7
				c-2.2,17.4-10.4,32.8-20.2,49.8l-2.8,0.3c-0.2,0-0.4,0-0.6,0.1l-0.2,0c-5.2,0.5-10,0.9-14.5,1.2
				C1218.2,934.9,1210.2,935.2,1202.8,935.2z"/>
			<path class="st9" d="M1151.2,741.5v1h0c3.4,0,6.8,0.3,10.2,1c0.3,0.1,0.6,0.1,1,0.2c11.3,2.5,20.2,8.8,25.2,17.7
				c9.3,16.6,4.1,37.5-0.5,56l-0.5,1.8c-4.3,17.5-8.3,42.5,6.8,58l3.1,3.2l-1.4-4.2c-2.1-6-2.4-12.5-1-18.7
				c1.7-7.7,6.1-14.7,12.3-19.6c6.1-4.9,13.8-7.5,21.5-7.5c2.5,0,5.1,0.3,7.6,0.8c1.1,0.2,2.1,0.5,2.9,0.7c2.3,0.7,4.5,1.6,6.6,2.8
				c17,9.5,22.5,31.1,20.3,48.2c-2.2,17.2-10.3,32.6-20,49.4l-2.3,0.2l-0.3,0c-0.2,0-0.5,0-0.7,0.1l-0.1,0l0,0l-0.1,0l0,0
				c-5.3,0.5-10,0.9-14.5,1.2c-9.2,0.6-17.2,1-24.5,1c-32.2,0-55.7-6.2-74.2-19.5c-14.9-10.7-26.3-26.7-32.9-46.1
				c-6.1-18-8-38.6-5.2-58.1c2.3-16.2,9.8-45.7,34.2-61.1c8-4.9,17.2-7.4,26.6-7.4L1151.2,741.5 M1151.2,741.5
				c-9.5,0-18.9,2.6-27.1,7.6c-20.6,13-31.2,37.6-34.7,61.8c-5.5,38.8,6.7,82.2,38.6,105.1c21.5,15.5,47.8,19.7,74.8,19.7
				c8.2,0,16.4-0.4,24.6-1c4.9-0.3,9.8-0.8,14.6-1.2c0,0,0.1,0,0.1,0c0.2,0,0.5,0,0.7-0.1c1-0.1,2-0.2,3-0.3l-0.2,0.4l-0.7,1.4
				c0.3-0.5,0.5-0.9,0.8-1.4c0.1-0.1,0.2-0.3,0.2-0.4c9.1-15.8,18.1-32.2,20.4-50.3c2.4-18.7-4.3-40-20.8-49.2
				c-2.2-1.2-4.5-2.2-6.8-2.9c-1-0.3-2-0.5-3-0.8c-2.6-0.6-5.2-0.9-7.8-0.9c-16.4,0-31.1,11.3-34.8,28c-1.4,6.4-1.1,13.1,1.1,19.3
				c-14-14.3-11.4-37.6-6.6-57.1c4.8-19.4,10.7-41.1,0.9-58.5c-5.5-9.7-15.1-15.8-25.9-18.2c-0.3-0.1-0.7-0.1-1-0.2
				C1158.1,741.9,1154.7,741.5,1151.2,741.5L1151.2,741.5z"/>
		</g>
		<g>
			<path class="st8" d="M1227.4,934.2c-11.8-1.6-23.3-4.7-34.3-9.2c-14.5-5.9-27.5-15.3-37.6-27.1c-4.9-5.8-8.9-12.3-11.9-19.4
				c-3.2-7.9-5.3-16.3-6.1-24.8c-1.6-15.7-0.5-33,3.5-52.8c3.6-17.8,9.4-35.2,17.2-51.6c0.8-1.7,1.8-3.6,2.9-5.9
				c0.1-0.2,0.3-0.3,0.4-0.4c0,0,0.1,0,0.1,0c0.2,0,0.3,0,0.5,0.1c0.5,0.3,0.7,0.9,0.5,1.4c-8.1,15.8-14.3,32.7-18.4,50
				c-4.2,17-6,34.5-5.5,52c0.8,18,5.7,33.4,14.7,45.7c9,12.1,20.9,21.9,34.5,28.3c14,6.8,30,11,48.8,12.8
				C1233.6,933.8,1230.5,934,1227.4,934.2z M1242.3,933c-10.6-11.3-17.7-25.4-20.6-40.6c-3.1-16.7-0.6-34.4,6.9-49.6
				c2.1-4.2,4.5-8.3,7.2-12c0.7,0.2,1.4,0.3,2,0.5c-7.3,9.8-12.2,21.4-14.4,33.4c-4.2,24.8,3.8,50.2,21.3,68.2l-2,0.2
				C1242.6,933,1242.5,933,1242.3,933z"/>
			<path class="st9" d="M1161.8,743.5c0.1,0,0.1,0,0.2,0.1l0,0l0,0c0.3,0.1,0.4,0.5,0.2,0.7c-8.1,15.9-14.3,32.7-18.4,50.1
				c-4.2,17.1-6,34.6-5.5,52.2c0.8,18.1,5.8,33.6,14.8,46c9,12.1,21,22,34.7,28.5c12.8,6.2,27.1,10.2,43.8,12.3
				c-1.4,0.1-2.8,0.2-4.2,0.3c-11.7-1.6-23.2-4.7-34.1-9.2c-14.4-5.8-27.3-15.2-37.4-27c-4.9-5.8-8.8-12.3-11.8-19.2
				c-3.2-7.9-5.2-16.2-6-24.7c-1.6-15.7-0.5-32.9,3.5-52.6c3.6-17.8,9.3-35.1,17.2-51.5c0.8-1.7,1.8-3.6,2.9-5.9l0,0L1161.8,743.5
				C1161.7,743.6,1161.7,743.5,1161.8,743.5C1161.8,743.5,1161.8,743.5,1161.8,743.5 M1236,831.3c0.3,0.1,0.6,0.1,0.9,0.2
				c-7.1,9.8-11.9,21.1-14,33c-4.2,24.6,3.6,49.8,20.7,67.9l-0.7,0.1l-0.2,0c-0.1,0-0.2,0-0.2,0c-10.4-11.2-17.5-25.1-20.3-40.2
				c-3.1-16.6-0.6-34.1,6.8-49.3C1231,838.9,1233.4,835,1236,831.3 M1161.8,742.5c-0.1,0-0.2,0-0.2,0c-0.3,0.1-0.6,0.3-0.8,0.7
				c-1,2-2,3.9-2.9,5.9c-7.9,16.5-13.7,33.8-17.3,51.7c-3.5,17.3-5.3,35.3-3.5,52.9c0.8,8.6,2.9,17,6.1,24.9c3,7.1,7,13.6,11.9,19.5
				c10.2,12,23.2,21.3,37.8,27.3c11.1,4.5,22.6,7.6,34.5,9.3c4.9-0.3,9.8-0.8,14.6-1.2c0,0,0.1,0,0.1,0c0.2,0,0.5,0,0.7-0.1
				c1-0.1,2-0.2,3-0.3l-0.2,0.4l-0.7,1.4c0.3-0.5,0.5-0.9,0.8-1.4c0.1-0.1,0.2-0.3,0.2-0.4c-18-17.9-26.2-43.5-22-68.5
				c2.2-12.3,7.2-23.8,14.7-33.8c-1-0.3-2-0.5-3-0.8c-2.9,3.9-5.4,8-7.5,12.4c-7.6,15.5-10,33-6.9,49.9
				c2.9,15.3,10.1,29.5,20.8,40.9c-0.9-0.1-1.9-0.1-2.8-0.2c-17.5-1.5-35-5.2-50.9-13c-13.6-6.4-25.4-16.1-34.3-28.2
				c-9.6-13.3-13.9-29.2-14.6-45.4c-0.6-17.5,1.3-34.9,5.4-51.9c4-17.3,10.2-34.1,18.3-49.9c0.4-0.7,0.1-1.7-0.6-2.1
				C1162.3,742.6,1162.1,742.5,1161.8,742.5L1161.8,742.5z"/>
		</g>
	</g>
</g>
</svg>
