<?xml version="1.0" encoding="utf-8"?>
<!-- Generator: Adobe Illustrator 24.1.1, SVG Export Plug-In . SVG Version: 6.00 Build 0)  -->
<svg version="1.1" id="Capa_1" xmlns="http://www.w3.org/2000/svg" xmlns:xlink="http://www.w3.org/1999/xlink" x="0px" y="0px"
	 viewBox="0 0 1280 1024" style="enable-background:new 0 0 1280 1024;" xml:space="preserve">
<style type="text/css">
	.Sombra_x0020_paralela{fill:none;}
	.Resplandor_x0020_externo_x0020_5_x0020_pt_x002E_{fill:none;}
	.Neón_x0020_azul{fill:none;stroke:#8AACDA;stroke-width:7;stroke-linecap:round;stroke-linejoin:round;}
	.Resalte_x0020_cromado{fill:url(#SVGID_1_);stroke:#FFFFFF;stroke-width:0.3629;stroke-miterlimit:1;}
	.A_x0020_todo_x0020_ritmo_GS{fill:#FFDD00;}
	.Alyssa_GS{fill:#A6D0E4;}
	.st0{fill:#F2F2F2;stroke:#08672F;stroke-miterlimit:10;}
	.st1{fill:#FFFFFF;stroke:#08672F;stroke-miterlimit:10;}
	.st2{fill:#FFB8B8;}
	.st3{fill:#2F2E41;}
	.st4{fill:#2F2E41;stroke:#333366;stroke-miterlimit:10;}
	.st5{fill:#990033;}
	.st6{fill:#3F3D56;}
	.st7{fill:#6C63FF;}
	.st8{fill:#CCCCCC;}
	.st9{fill:#E6E6E6;}
	.st10{fill:#FFFFFF;}
</style>
<linearGradient id="SVGID_1_" gradientUnits="userSpaceOnUse" x1="0" y1="0" x2="6.123234e-17" y2="-1">
	<stop  offset="0" style="stop-color:#656565"/>
	<stop  offset="0.618" style="stop-color:#1B1B1B"/>
	<stop  offset="0.6292" style="stop-color:#545454"/>
	<stop  offset="0.9831" style="stop-color:#3E3E3E"/>
</linearGradient>
<g>
	<g>
		<path class="st0" d="M129.3,974.4l-0.1,0.4c-0.1-0.4-0.1-0.7-0.2-1.1c-0.1-0.6-0.2-1.2-0.3-1.8c-3.7-23.2-1.7-47,5.9-69.3
			c1.5-4.3,3.1-8.6,5-12.8c7.1-16.2,17.2-31,29.7-43.5c4.1-4.2,8.7-7.7,13.8-10.6c0.7-0.4,1.5-0.8,2.3-1.1c4.7-2.3,10-3,15.1-2.2
			c1.9,0.4,3.7,1,5.4,1.8c0.6,0.3,1.2,0.6,1.7,1c7,4.6,11.7,11.8,13.1,20c1,6.1,0.8,12.2-0.7,18.2c-0.1,0.6-0.3,1.1-0.4,1.7
			c-1,4-2.3,7.9-3.8,11.7C200.9,925.7,168.5,960.1,129.3,974.4z"/>
		<path class="st1" d="M205.9,834.4c-11.8,16.9-22.9,34.3-33.4,52.1c-10.5,17.8-20.2,35.9-29.3,54.4c-5.1,10.4-10,20.8-14.6,31.4
			c-0.5,1.2,1.2,2.2,1.7,1c8.3-18.9,17.3-37.4,27-55.6c9.7-18.2,20.1-36,31.1-53.4c6.2-9.7,12.6-19.4,19.2-28.8
			C208.4,834.3,206.6,833.3,205.9,834.4L205.9,834.4z"/>
		<path class="st1" d="M218.5,873.5c-8.9,11.5-21.9,19.1-36.3,21c-4,0.5-8.1,0.6-12.1,0.2c-1.3-0.1-1.3,1.9,0,2
			c15,1.3,29.9-3.4,41.4-13.1c3.2-2.7,6.2-5.8,8.7-9.2C221,873.5,219.3,872.5,218.5,873.5L218.5,873.5z"/>
		<path class="st1" d="M142.9,935.9c-2.1-2.9-3.8-6.1-5.1-9.4c-3-7.6-4.1-15.8-3.1-23.9c1.5-4.3,3.1-8.6,5-12.8
			c0.2,0.3,0.3,0.8,0.1,1.1c-1.3,3.1-2.3,6.4-2.8,9.8c-2,12,0.8,24.3,7.7,34.2c0.2,0.2,0.2,0.5,0.1,0.8c-0.2,0.6-0.9,0.8-1.4,0.6
			C143.2,936.2,143,936.1,142.9,935.9z"/>
		<path class="st1" d="M183.5,834.5c-2.4,9.7-1.7,19.8,2.1,29c0.3,0.5,0.9,0.6,1.4,0.4c0.5-0.3,0.6-0.9,0.4-1.4
			c-3.5-8.7-4.2-18.4-1.9-27.5c0.1-0.5-0.2-1.1-0.7-1.2C184.2,833.7,183.7,834,183.5,834.5L183.5,834.5z"/>
		<path class="st0" d="M129.1,925.9l0.1,0.4c-0.2-0.3-0.5-0.6-0.7-0.9c-0.4-0.5-0.7-0.9-1.1-1.4c-14.1-18.9-23.3-40.9-26.9-64.1
			c-0.7-4.5-1.2-9.1-1.5-13.6c-1.2-17.7,0.9-35.4,6.2-52.3c1.7-5.6,4.1-10.9,7.3-15.8c0.5-0.7,1-1.4,1.5-2c3.1-4.2,7.4-7.3,12.4-9
			c1.8-0.6,3.7-0.9,5.6-0.9c0.7,0,1.3,0,2,0c8.3,0.8,15.9,5,20.9,11.7c3.7,4.9,6.4,10.5,7.9,16.4c0.2,0.6,0.3,1.1,0.4,1.7
			c1,4,1.7,8,2.1,12.1C169.8,849.5,157.1,895.1,129.1,925.9z"/>
		<path class="st1" d="M131.8,766.3c-2.6,20.5-4.4,41-5.4,61.6c-1,20.6-1.2,41.2-0.7,61.8c0.3,11.5,0.9,23.1,1.7,34.6
			c0.1,1.3,2.1,1.4,2,0.1c-1.4-20.6-2.1-41.2-1.9-61.8c0.1-20.6,1.1-41.2,2.7-61.8c1-11.5,2.1-23,3.6-34.5
			C134,765.1,132,765,131.8,766.3L131.8,766.3z"/>
		<path class="st1" d="M161.2,795.2c-2.5,14.3-10.5,27-22.3,35.5c-3.3,2.3-6.9,4.3-10.6,5.8c-1.2,0.5-0.3,2.3,0.9,1.8
			c13.9-5.8,24.9-16.9,30.6-30.8c1.6-3.9,2.8-8,3.4-12.1C163.4,794,161.4,793.9,161.2,795.2L161.2,795.2z"/>
		<path class="st1" d="M123.2,885.5c-3.2-1.6-6.2-3.6-8.9-6c-6.2-5.3-11-12.1-13.9-19.7c-0.7-4.5-1.2-9.1-1.5-13.6
			c0.4,0.2,0.6,0.6,0.6,1c0.3,3.4,1,6.7,2.1,10c3.8,11.5,12,21.1,22.7,26.7c0.3,0.1,0.4,0.4,0.5,0.6c0,0.6-0.4,1.1-1,1.2
			C123.6,885.6,123.4,885.6,123.2,885.5z"/>
		<path class="st1" d="M112,776.8c2.3,9.7,7.7,18.3,15.3,24.8c0.5,0.3,1.1,0.2,1.4-0.3c0.3-0.5,0.2-1.1-0.3-1.4
			c-7.2-6.1-12.2-14.3-14.4-23.5c-0.1-0.5-0.7-0.9-1.2-0.7C112.3,775.8,112,776.3,112,776.8L112,776.8z"/>
		<path class="st0" d="M129.9,974.6l0.3,0.2c-0.3-0.1-0.7-0.2-1.1-0.4c-0.6-0.2-1.1-0.4-1.7-0.6c-22-8.3-41.7-21.9-57.2-39.5
			c-3.1-3.4-5.9-7-8.6-10.7c-10.6-14.2-18.4-30.3-23-47.4c-1.6-5.6-2.4-11.4-2.3-17.2c0-0.8,0.1-1.7,0.2-2.5
			c0.4-5.2,2.3-10.2,5.6-14.2c1.2-1.5,2.7-2.7,4.2-3.8c0.5-0.4,1.1-0.7,1.7-1c7.4-3.8,16.1-4.3,23.9-1.4c5.7,2.2,11,5.4,15.5,9.6
			c0.4,0.4,0.9,0.8,1.3,1.2c3,2.8,5.7,5.9,8.3,9.1C123.1,888.3,137,933.6,129.9,974.6z"/>
		<path class="st1" d="M46.3,838.7c8.9,18.6,18.4,36.9,28.7,54.8c10.2,17.9,21.1,35.4,32.7,52.5c6.5,9.6,13.2,19,20,28.3
			c0.8,1,2.5,0,1.7-1c-12.3-16.6-23.9-33.6-34.9-51c-11-17.4-21.3-35.3-31-53.5c-5.4-10.2-10.6-20.5-15.5-31
			C47.5,836.5,45.8,837.5,46.3,838.7z"/>
		<path class="st1" d="M86.6,847.2c5.6,13.4,5.7,28.4,0.3,41.9c-1.5,3.8-3.5,7.3-5.8,10.6c-0.7,1.1,1,2.1,1.7,1
			c8.5-12.4,11.8-27.7,9.2-42.5c-0.7-4.2-2-8.2-3.7-12.1C87.8,845,86.1,846,86.6,847.2L86.6,847.2z"/>
		<path class="st1" d="M103.3,943.8c-3.6,0.3-7.2,0.2-10.7-0.2c-8.1-1.1-15.8-4.3-22.3-9.1c-3.1-3.4-5.9-7-8.6-10.7
			c0.4,0,0.8,0.2,1,0.5c2.1,2.7,4.5,5.1,7.1,7.3c9.4,7.7,21.4,11.4,33.5,10.3c0.3,0,0.6,0.1,0.7,0.3c0.4,0.5,0.3,1.2-0.2,1.5
			C103.6,943.7,103.5,943.8,103.3,943.8z"/>
		<path class="st1" d="M35.3,858.2c7.2,6.9,16.4,11.3,26.2,12.6c0.5,0.1,1-0.5,1-1c0-0.5-0.5-1-1-1c-9.3-1.3-18-5.5-24.8-12
			C35.8,855.9,34.4,857.3,35.3,858.2L35.3,858.2z"/>
	</g>
	<path class="st2" d="M267,709.8c7.4-5.1,9.3-15.2,4.2-22.6c-0.5-0.8-1.2-1.5-1.8-2.2l6.3-140.8l-32.1,3.6l1.9,137.8
		c-6,6.7-5.4,17.1,1.3,23.1C252.5,713.6,260.8,714.1,267,709.8z"/>
	<polygon class="st2" points="325.6,948.2 343.9,951.4 362,882.4 338,877.7 	"/>
	<polygon class="st2" points="275.4,957.3 294,957.3 302.8,885.7 275.4,885.7 	"/>
	<path class="st3" d="M354.4,937.7c-0.3,0-0.6,0-0.9-0.1l-21.8-1.8c-4.1-0.5-7-4.1-6.5-8.2c0-0.1,0-0.2,0.1-0.4l20.2-113.1
		l-13.6-71.9c-0.3-1.3-1.5-2.2-2.9-2c-1.1,0.2-1.9,1.1-2,2.2l-17,191.7c-0.4,4-3.9,7-7.9,6.7l-20.6-0.8c-3.7-0.3-6.7-3.3-6.9-7
		l-1.4-229.8l106.7-13.3l7.5,115.1l0,0.1l-25.7,126.7C360.8,935.4,357.8,937.7,354.4,937.7z"/>
	<circle class="st2" cx="308.4" cy="415.6" r="37.2"/>
	<path class="st4" d="M332.3,982.9l-58-6.1l0,0l2.3-22.4l0,0l35.6,3.7C324.6,959.4,333.6,970.5,332.3,982.9L332.3,982.9L332.3,982.9
		z"/>
	<path class="st5" d="M343.4,720.2c-5.8,0-11.5-1.6-16.4-4.7c-18-11.3-38.5-6.8-49.1-3.1c-2.1,0.7-4.5,0.5-6.4-0.7
		c-1.9-1.2-3.1-3.2-3.4-5.4l-19.3-172c-3.2-28.8,14.1-55.9,41.3-64.4l0,0c1-0.3,2.1-0.6,3.1-0.9c17.1-4.6,35.4-1.5,49.9,8.7
		c14.8,10.2,24.3,26.5,26,44.4l16.2,173.2c0.2,2.3-0.6,4.5-2.3,6.1C377.4,706.6,360.9,720.2,343.4,720.2z"/>
	<path class="st5" d="M284.7,571.2l-43.5-4.8c-4.8-0.5-8.2-4.8-7.7-9.6c0-0.4,0.1-0.8,0.2-1.3l11.1-42.2
		c1.5-13.2,13.5-22.6,26.6-21.1c13.1,1.5,22.6,13.4,21.1,26.5l1.6,43.4c0.2,4.8-3.5,8.8-8.3,9C285.6,571.2,285.2,571.2,284.7,571.2
		L284.7,571.2z"/>
	<path class="st2" d="M385.2,703.7c6.7-5.9,7.4-16.2,1.5-23c-0.6-0.7-1.3-1.4-2.1-2l-10.7-140.6l-31.5,7.1l18.5,136.9
		c-5.1,7.4-3.3,17.6,4.1,22.8C371.2,709.3,379.6,708.8,385.2,703.7z"/>
	<path class="st5" d="M330.4,562.3c-1.8-1.7-2.8-4.1-2.8-6.7l1.6-43.4c-1.5-13.2,8.1-25.1,21.3-26.5c13.1-1.4,25,8,26.5,21.1
		l11.1,42.2c1.2,4.6-1.6,9.4-6.2,10.6c-0.4,0.1-0.8,0.2-1.3,0.2l-43.5,4.8C334.7,564.9,332.2,564.1,330.4,562.3z"/>
	<path class="st4" d="M376.2,974.6l-57.5-10.1l0,0l3.9-22.2l0,0l35.3,6.2C370.1,950.6,378.3,962.3,376.2,974.6L376.2,974.6
		L376.2,974.6z"/>
	<path class="st3" d="M306.1,454.2c-0.7,0-1.3-0.1-2-0.2l-0.2,0c-32.7-5-39.9-23.9-41.5-31.9c-1.6-8.2,0.2-16.1,4.5-19.2
		c-2.3-7.3-1.9-13.7,1.1-19.2c5.3-9.5,16.8-12.7,18.3-13.1c9.2-6.8,20.1-2.2,22.1-1.3c17.7-6.6,24.5-1.1,25.8,0.1
		c7.9,1.4,12.8,4.5,14.4,9.1c3,8.7-6.5,19.5-6.9,19.9l-0.2,0.2l-14.2,0.7c-5.3,0.3-9.4,4.8-9.2,10.1c0,0.3,0,0.7,0.1,1l0,0
		c0.4,1.7,0.9,3.4,1.5,5.1c2.4,7.6,4.2,14.1,1.9,16.5c-1.1,1-2.6,1.2-4,0.7c-2.2-0.6-3.7-0.5-4.5,0.4c-1.2,1.3-0.8,4.6,1,9.3
		c1.2,3,0.5,6.4-1.6,8.9C310.9,453.1,308.6,454.2,306.1,454.2z"/>
	<path class="st6" d="M745.3,573.1H562.1c-14.2,0-25.7-11.5-25.7-25.7V272c0-14.2,11.5-25.7,25.7-25.7h183.2
		c14.2,0,25.7,11.5,25.7,25.7v275.3C771.1,561.6,759.5,573.1,745.3,573.1z M562.1,249.3c-12.5,0-22.7,10.2-22.7,22.7v275.3
		c0,12.5,10.2,22.7,22.7,22.7h183.2c12.5,0,22.7-10.2,22.7-22.7V272c0-12.5-10.2-22.7-22.7-22.7H562.1z"/>
	<path class="st7" d="M717.3,378.7H590.1c-7.1,0-12.9-5.8-12.9-12.9v-60.6c0-7.1,5.8-12.9,12.9-12.9h127.2c7.1,0,12.9,5.8,12.9,12.9
		v60.6C730.2,372.9,724.4,378.7,717.3,378.7z"/>
	<path class="st8" d="M708.2,435.4h-109c-6.7,0-12.1-5.4-12.1-12.1s5.4-12.1,12.1-12.1h109c6.7,0,12.1,5.4,12.1,12.1
		S714.9,435.4,708.2,435.4z"/>
	<path class="st8" d="M708.2,480.9h-109c-6.7,0-12.1-5.4-12.1-12.1s5.4-12.1,12.1-12.1h109c6.7,0,12.1,5.4,12.1,12.1
		S714.9,480.9,708.2,480.9z"/>
	<path class="st8" d="M708.2,526.3h-109c-6.7,0-12.1-5.4-12.1-12.1c0-6.7,5.4-12.1,12.1-12.1h109c6.7,0,12.1,5.4,12.1,12.1
		C720.4,520.9,714.9,526.3,708.2,526.3z"/>
	<path class="st6" d="M1192,727.5h-183.2c-14.2,0-25.7-11.5-25.7-25.7V426.5c0-14.2,11.5-25.7,25.7-25.7H1192
		c14.2,0,25.7,11.5,25.7,25.7v275.3C1217.7,716,1206.2,727.5,1192,727.5z M1008.8,403.8c-12.5,0-22.7,10.2-22.7,22.7v275.3
		c0,12.5,10.2,22.7,22.7,22.7H1192c12.5,0,22.7-10.2,22.7-22.7V426.5c0-12.5-10.2-22.7-22.7-22.7H1008.8z"/>
	<path class="st8" d="M1154.9,468.8h-109c-6.7,0-12.1-5.4-12.1-12.1s5.4-12.1,12.1-12.1h109c6.7,0,12.1,5.4,12.1,12.1
		S1161.6,468.8,1154.9,468.8z"/>
	<path class="st8" d="M1154.9,514.2h-109c-6.7,0-12.1-5.4-12.1-12.1s5.4-12.1,12.1-12.1h109c6.7,0,12.1,5.4,12.1,12.1
		S1161.6,514.2,1154.9,514.2z"/>
	<path class="st9" d="M1164,630h-127.2c-7.1,0-12.9-5.8-12.9-12.9v-60.6c0-7.1,5.8-12.9,12.9-12.9H1164c7.1,0,12.9,5.8,12.9,12.9
		v60.6C1176.9,624.2,1171.1,630,1164,630z"/>
	<path class="st8" d="M1154.9,683.8h-109c-6.7,0-12.1-5.4-12.1-12.1s5.4-12.1,12.1-12.1h109c6.7,0,12.1,5.4,12.1,12.1
		S1161.6,683.8,1154.9,683.8z"/>
	<path class="st6" d="M1080,290H896.7c-14.2,0-25.7-11.5-25.7-25.7V93.4c0-14.2,11.5-25.7,25.7-25.7H1080
		c14.2,0,25.7,11.5,25.7,25.7v170.8C1105.7,278.4,1094.2,289.9,1080,290z M896.7,70.7c-12.5,0-22.7,10.2-22.7,22.7v170.8
		c0,12.5,10.2,22.7,22.7,22.7H1080c12.5,0,22.7-10.2,22.7-22.7V93.4c0-12.5-10.2-22.7-22.7-22.7H896.7z"/>
	<path class="st8" d="M1042.9,236.3h-109c-6.7,0-12.1-5.4-12.1-12.1c0-6.7,5.4-12.1,12.1-12.1h109c6.7,0,12.1,5.4,12.1,12.1
		C1055,230.9,1049.6,236.3,1042.9,236.3z"/>
	<path class="st8" d="M1042.9,190.9h-109c-6.7,0-12.1-5.4-12.1-12.1s5.4-12.1,12.1-12.1h109c6.7,0,12.1,5.4,12.1,12.1
		S1049.6,190.9,1042.9,190.9z"/>
	<path class="st8" d="M1042.9,145.5h-109c-6.7,0-12.1-5.4-12.1-12.1c0-6.7,5.4-12.1,12.1-12.1h109c6.7,0,12.1,5.4,12.1,12.1
		C1055,140.1,1049.6,145.5,1042.9,145.5z"/>
	<circle class="st7" cx="755.9" cy="253.6" r="34.8"/>
	<path class="st10" d="M752.5,266.9c-0.8,0-1.5-0.3-2.2-0.7l0,0l-8.2-6.3c-1.6-1.2-1.9-3.5-0.7-5.1c1.2-1.6,3.5-1.9,5.1-0.7
		c0,0,0,0,0,0l5.3,4.1l12.5-16.3c1.2-1.6,3.5-1.9,5.1-0.7c0,0,0,0,0,0l-0.1,0.1l0.1-0.1c1.6,1.2,1.9,3.5,0.7,5.1l-14.7,19.2
		C754.7,266.4,753.6,266.9,752.5,266.9z"/>
	<circle class="st6" cx="1210.2" cy="409.6" r="34.8"/>
	<path class="st10" d="M1206.7,422.9c-0.8,0-1.5-0.3-2.2-0.7l0,0l-8.2-6.3c-1.6-1.2-1.9-3.5-0.7-5.1c1.2-1.6,3.5-1.9,5.1-0.7
		c0,0,0,0,0,0l5.3,4.1l12.5-16.3c1.2-1.6,3.5-1.9,5.1-0.7c0,0,0,0,0,0l-0.1,0.1l0.1-0.1c1.6,1.2,1.9,3.5,0.7,5.1l-14.7,19.2
		C1208.9,422.3,1207.9,422.9,1206.7,422.9z"/>
	<circle class="st6" cx="1099.6" cy="71.9" r="34.8"/>
	<path class="st10" d="M1096.2,85.2c-0.8,0-1.5-0.3-2.2-0.7l0,0l-8.2-6.3c-1.6-1.2-1.9-3.5-0.7-5.1c1.2-1.6,3.5-1.9,5.1-0.7
		c0,0,0,0,0,0l5.3,4.1l12.5-16.3c1.2-1.6,3.5-1.9,5.1-0.7c0,0,0,0,0,0l-0.1,0.1l0.1-0.1c1.6,1.2,1.9,3.5,0.7,5.1l-14.7,19.2
		C1098.4,84.7,1097.3,85.2,1096.2,85.2z"/>
</g>
</svg>
