<?xml version="1.0" encoding="utf-8"?>
<!-- Generator: Adobe Illustrator 24.1.1, SVG Export Plug-In . SVG Version: 6.00 Build 0)  -->
<svg version="1.1" id="Capa_1" xmlns="http://www.w3.org/2000/svg" xmlns:xlink="http://www.w3.org/1999/xlink" x="0px" y="0px"
	 viewBox="0 0 1280 1024" style="enable-background:new 0 0 1280 1024;" xml:space="preserve">
<style type="text/css">
	.st0{fill:#E6E6E6;}
	.st1{fill:#FFFFFF;}
	.st2{fill:#6C63FF;}
	.st3{fill:#E50914;}
	.st4{fill:#FFFFFF;stroke:#B1060F;stroke-miterlimit:10;}
	.st5{fill:#FFB8B8;}
	.st6{fill:#CCCCCC;}
	.st7{fill:#2F2E41;}
</style>
<g>
	<path class="st0" d="M886.4,249.9H881V101.1c0-47.5-38.5-86.1-86.1-86.1l0,0H479.7c-47.5,0-86.1,38.5-86.1,86.1v816.1
		c0,47.5,38.5,86.1,86.1,86.1h315.2c47.5,0,86.1-38.5,86.1-86.1V355.7h5.4L886.4,249.9z"/>
	<path class="st1" d="M862.6,101.7v814.9c0,35.5-28.8,64.3-64.3,64.3H481.7c-35.5,0-64.3-28.8-64.3-64.3V101.7
		c0-35.5,28.8-64.3,64.3-64.3h38.4c-6.4,15.6,1.2,33.5,16.8,39.8c3.7,1.5,7.6,2.3,11.5,2.3h180.6c16.9,0,30.6-13.7,30.5-30.6
		c0-3.9-0.8-7.8-2.3-11.5h41.1C833.8,37.4,862.6,66.2,862.6,101.7z"/>
	<path class="st2" d="M552.6,260.8h-48.6c-8.3,0-15.1-6.8-15.1-15.1v-48.6c0-8.3,6.8-15.1,15.1-15.1h48.6c8.3,0,15.1,6.8,15.1,15.1
		v48.6C567.7,254.1,560.9,260.8,552.6,260.8z"/>
	<path class="st2" d="M664.3,260.8h-48.6c-8.3,0-15.1-6.8-15.1-15.1v-48.6c0-8.3,6.8-15.1,15.1-15.1h48.6c8.3,0,15.1,6.8,15.1,15.1
		v48.6C679.4,254.1,672.7,260.8,664.3,260.8z"/>
	<path class="st0" d="M776.1,260.8h-48.6c-8.3,0-15.1-6.8-15.1-15.1v-48.6c0-8.3,6.8-15.1,15.1-15.1h48.6c8.3,0,15.1,6.8,15.1,15.1
		v48.6C791.2,254.1,784.4,260.8,776.1,260.8z"/>
	<path class="st0" d="M552.6,385.1h-48.6c-8.3,0-15.1-6.8-15.1-15.1v-48.6c0-8.3,6.8-15.1,15.1-15.1h48.6c8.3,0,15.1,6.8,15.1,15.1
		V370C567.7,378.3,560.9,385.1,552.6,385.1z"/>
	<path class="st0" d="M664.3,385.1h-48.6c-8.3,0-15.1-6.8-15.1-15.1v-48.6c0-8.3,6.8-15.1,15.1-15.1h48.6c8.3,0,15.1,6.8,15.1,15.1
		V370C679.4,378.3,672.7,385.1,664.3,385.1z"/>
	<path class="st0" d="M776.1,385.1h-48.6c-8.3,0-15.1-6.8-15.1-15.1v-48.6c0-8.3,6.8-15.1,15.1-15.1h48.6c8.3,0,15.1,6.8,15.1,15.1
		V370C791.2,378.3,784.4,385.1,776.1,385.1z"/>
	<path class="st0" d="M552.6,509.3h-48.6c-8.3,0-15.1-6.8-15.1-15.1v-48.6c0-8.3,6.8-15.1,15.1-15.1h48.6c8.3,0,15.1,6.8,15.1,15.1
		v48.6C567.7,502.6,560.9,509.3,552.6,509.3z"/>
	<path class="st0" d="M664.3,509.3h-48.6c-8.3,0-15.1-6.8-15.1-15.1v-48.6c0-8.3,6.8-15.1,15.1-15.1h48.6c8.3,0,15.1,6.8,15.1,15.1
		v48.6C679.4,502.6,672.7,509.3,664.3,509.3z"/>
	<path class="st0" d="M776.1,509.3h-48.6c-8.3,0-15.1-6.8-15.1-15.1v-48.6c0-8.3,6.8-15.1,15.1-15.1h48.6c8.3,0,15.1,6.8,15.1,15.1
		v48.6C791.2,502.6,784.4,509.3,776.1,509.3z"/>
	<path class="st0" d="M552.6,633.6h-48.6c-8.3,0-15.1-6.8-15.1-15.1v-48.6c0-8.3,6.8-15.1,15.1-15.1h48.6c8.3,0,15.1,6.8,15.1,15.1
		v48.6C567.7,626.8,560.9,633.6,552.6,633.6z"/>
	<path class="st0" d="M664.3,633.6h-48.6c-8.3,0-15.1-6.8-15.1-15.1v-48.6c0-8.3,6.8-15.1,15.1-15.1h48.6c8.3,0,15.1,6.8,15.1,15.1
		v48.6C679.4,626.8,672.7,633.6,664.3,633.6z"/>
	<path class="st0" d="M776.1,633.6h-48.6c-8.3,0-15.1-6.8-15.1-15.1v-48.6c0-8.3,6.8-15.1,15.1-15.1h48.6c8.3,0,15.1,6.8,15.1,15.1
		v48.6C791.2,626.8,784.4,633.6,776.1,633.6z"/>
	<path class="st2" d="M695.6,619.2H647c-8.7,0-15.8-7.1-15.8-15.8v-48.6c0-8.7,7.1-15.8,15.8-15.8h48.6c8.7,0,15.8,7.1,15.8,15.8
		v48.6C711.4,612.1,704.3,619.2,695.6,619.2z"/>
	<g id="Icono_1_">
		<g id="nflisligo_1_">
			
				<image style="overflow:visible;enable-background:new    ;" width="178" height="900" id="Netflix_Symbol_Left_Leg_1_" xlink:href="28927DAF.png"  transform="matrix(7.806452e-02 0 0 7.806452e-02 640.071 543.8516)">
			</image>
			
				<image style="overflow:visible;enable-background:new    ;" width="178" height="900" id="Netflix_Symbol_Right_Leg_1_" xlink:href="28927DAD.png"  transform="matrix(7.806452e-02 0 0 7.806452e-02 664.8955 543.8516)">
			</image>
			<path id="Netflix_Symbol_Diagonal_1_" class="st3" d="M653.9,543.9h-13.8l24.4,69c6.9,0.2,14.2,1.2,14.2,1.2L653.9,543.9z"/>
		</g>
		<g>
			<ellipse class="st4" cx="678.2" cy="588" rx="24.4" ry="25.6"/>
			<rect x="678.5" y="578" width="7.5" height="3"/>
			<path d="M665.8,602.5v-29.1c0-0.8,0.6-1.5,1.4-1.5h20.2c0.8,0,1.4,0.7,1.4,1.5v14.6l2.8-3.1v-11.5c0-2.5-1.9-4.5-4.2-4.5h-20.2
				c-2.3,0-4.2,2-4.2,4.5v29.1c0,2.5,1.9,4.5,4.2,4.5H678l0.6-3h-11.4C666.4,604,665.8,603.3,665.8,602.5z"/>
			<rect x="678.5" y="586.9" width="7.5" height="3"/>
			<path d="M693.2,587.5l-9.5,10.3c-0.5,0.6-1,1.3-1.2,2l0,0.1l-1.5,7.1l6.8-1.6l0.1,0c0.7-0.3,1.4-0.7,2-1.3l9.5-10.3L693.2,587.5z
				 M687.7,602c-0.1,0.1-0.1,0.1-0.2,0.2l-2-2.1c0-0.1,0.1-0.1,0.2-0.2l7.5-8.1l2,2.1L687.7,602z"/>
			<polygon points="675.8,583.8 672.3,588 670.6,586.3 668.7,588.4 672.5,592.2 677.9,585.8 			"/>
			<polygon points="675.8,574.8 672.3,579 670.6,577.3 668.7,579.4 672.5,583.2 677.9,576.8 			"/>
			<polygon points="670.6,595.2 668.7,597.4 672.5,601.2 677.9,594.7 675.8,592.8 672.3,596.9 			"/>
		</g>
	</g>
	<path class="st5" d="M465.5,744.7c6.9-3.5,9.8-11.9,6.3-18.8c-0.4-0.7-0.8-1.4-1.3-2.1L481,621.1h-22.7L450,721.3
		c-5.9,5.1-6.7,14-1.6,19.9C452.6,746.2,459.7,747.6,465.5,744.7z"/>
	<circle class="st5" cx="486.3" cy="532.3" r="32.1"/>
	<path class="st6" d="M492.4,680.9c-2.6,0-5-1.8-5.7-4.3c-2.6-9.3-9.3-25.1-19.9-47c-9.4-19.3-1.3-42.6,18-52
		c1.3-0.6,2.7-1.2,4.1-1.7l0,0c20.3-7.2,42.5,3.5,49.6,23.7c0.1,0.3,0.2,0.7,0.4,1.1c8.2,25.8,7.8,53.5,7.3,64.2
		c-0.1,2.6-2,4.9-4.6,5.4l-47.9,10.5C493.2,680.8,492.8,680.9,492.4,680.9z"/>
	<polygon class="st5" points="538.8,985.8 554.8,985.8 562.4,923.9 538.8,923.9 	"/>
	<path class="st7" d="M585.7,1000.6l-50.4,0l0,0l0-19.5l0,0l30.9,0C577,981.2,585.7,989.9,585.7,1000.6L585.7,1000.6L585.7,1000.6z"
		/>
	<polygon class="st5" points="378.5,965 392.6,972.7 429,922.2 408.3,910.8 	"/>
	<path class="st7" d="M412.5,1000.7l-44.1-24.3l0,0l9.4-17.1l0,0l27.1,14.9C414.2,979.4,417.7,991.2,412.5,1000.7
		C412.5,1000.7,412.5,1000.7,412.5,1000.7L412.5,1000.7L412.5,1000.7z"/>
	<path class="st7" d="M538,951.5c-3,0-5.4-2.2-5.8-5.1l-20-154.5c-0.2-1.8-1.9-3.1-3.7-2.8c-1,0.1-1.9,0.8-2.4,1.7l-83.5,151.6
		c-1.4,2.6-4.5,3.7-7.2,2.7l-18.2-6.9c-3-1.2-4.6-4.6-3.4-7.6c0,0,0-0.1,0-0.1l57.9-142.2c0.1-0.4,0.2-0.7,0.3-1.1
		c7.8-60.7,27.8-91.5,33.7-99.5c0.9-1.2,1.1-2.7,0.6-4.1l-0.8-2.4c-0.7-2-0.2-4.1,1.1-5.7c21.3-24.3,58.6-11,58.9-10.9l0.2,0.1
		l0.1,0.2c41.7,57.2,26.3,243.1,22.8,279.8c-0.3,2.8-2.6,5.1-5.4,5.3l-24.7,1.9C538.3,951.4,538.2,951.5,538,951.5z"/>
	<path class="st5" d="M611.2,569.6c-0.2,0.7-0.3,1.4-0.3,2.1l-56.2,32.4l-13.7-7.9l-14.6,19.1l22.8,16.3c3.8,2.7,8.9,2.6,12.5-0.3
		l57.9-45.7c7.1,2.6,15-1,17.6-8.1c2.6-7.1-1-15-8.1-17.6c-7.1-2.6-15,1-17.6,8.1C611.5,568.5,611.3,569,611.2,569.6L611.2,569.6z"
		/>
	<path class="st6" d="M552.8,605.7l-18.2,23.5c-2,2.6-5.7,3-8.3,1.1c-0.2-0.2-0.4-0.4-0.6-0.6l-20.5-21.3
		c-7.1-5.6-8.4-15.8-2.8-22.9c5.5-7.1,15.7-8.4,22.9-2.9l25.8,14.4c2.8,1.6,3.8,5.2,2.3,8C553.2,605.2,553,605.4,552.8,605.7
		L552.8,605.7z"/>
	<path class="st6" d="M482.5,646.5l-29.2-5.3c-3.2-0.6-5.3-3.6-4.7-6.8c0.1-0.3,0.1-0.6,0.2-0.8l9.5-28.1
		c1.7-8.9,10.2-14.7,19.1-13.1c8.8,1.6,14.7,10.1,13.1,19l-0.9,29.5c-0.1,3.2-2.8,5.8-6.1,5.7C483,646.6,482.8,646.6,482.5,646.5
		L482.5,646.5z"/>
	<path class="st7" d="M491.4,524.9c8.3,5.6,19.1,11.5,27.5,5.4c5.4-4.1,7.5-11.3,5-17.7c-4-11.5-15.1-16.6-25.7-20.5
		c-13.8-5.1-28.8-9.1-43-5.5c-14.2,3.6-26.8,17.4-24.2,31.9c2.1,11.6,13,21.3,11.5,33c-1.6,11.8-14.8,18-26.5,20.1
		s-24.8,2.8-33.2,11.2c-10.7,10.7-8,29.9,2,41.2c10.1,11.3,25.3,16.4,40.1,19.9c19.5,4.6,40.7,7,59.3-0.6
		c18.6-7.7,33-28.3,27.6-47.7c-2.3-8.2-7.6-15.1-12.8-21.8c-5.2-6.7-10.4-13.8-12.4-22c-1.6-6.9-0.4-14.9,4.1-20
		c1.7-1.9,2-4.6,0.8-6.8L491.4,524.9z"/>
	<polygon class="st5" points="817.9,987.9 801.2,987.9 793.3,923.7 817.9,923.7 	"/>
	<path class="st7" d="M789.4,983.1h32.1l0,0v20.2l0,0h-52.3l0,0l0,0C769.1,992.2,778.2,983.1,789.4,983.1z"/>
	<polygon class="st5" points="880.4,987.9 863.7,987.9 855.8,923.7 880.4,923.7 	"/>
	<path class="st7" d="M851.8,983.1h32.1l0,0v20.2l0,0h-52.3l0,0l0,0C831.6,992.2,840.7,983.1,851.8,983.1z"/>
	<path class="st5" d="M878.3,796.7c-6.8-4.4-8.7-13.4-4.4-20.2c0.5-0.7,1-1.4,1.6-2l-11-155.6l31.6,3.1l0.9,152.3
		c5.6,5.9,5.3,15.2-0.6,20.7C891.5,799.7,884,800.4,878.3,796.7L878.3,796.7z"/>
	<path class="st7" d="M817.1,955.6l-18.3-0.9c-3.2-0.2-5.8-2.8-5.8-6.1l-1.3-185.4c0-3.4,2.7-6.1,6.1-6.2c0.3,0,0.6,0,0.9,0.1
		l73.3,10.6c3,0.4,5.2,3,5.2,6l9.4,171.8c0,3.4-2.7,6.1-6.1,6.2c0,0,0,0,0,0h-19.8c-3,0-5.6-2.2-6-5.2l-12.2-77.5
		c-0.4-2.6-2.8-4.4-5.4-4c-2.1,0.3-3.7,2-4,4.1l-9.7,80.9c-0.4,3.1-3,5.4-6.1,5.4C817.3,955.6,817.2,955.6,817.1,955.6z"/>
	<path class="st2" d="M830,773.7c-16.2-9-28.8-11.3-34.9-11.9c-1.6-0.2-3.1-1-4.1-2.3c-1-1.3-1.5-3-1.3-4.6l17.6-130.4
		c2.1-15.5,12-28.9,26.3-35.2c13.8-6.4,30-5.1,42.6,3.3c0.6,0.4,1.2,0.8,1.8,1.2c14.7,10.8,21.4,29.3,17.2,46.9
		c-10.8,44.1-14.5,116.3-15.1,130.4c-0.1,2.4-1.7,4.6-4,5.4c-6.6,2.4-13.6,3.7-20.7,3.7C846.5,780.3,837.8,778.1,830,773.7z"/>
	<path class="st2" d="M871.7,671.2c-1.5-1.1-2.4-2.8-2.5-4.6l-2.3-41.9c-0.5-9.3,6.6-17.2,15.9-17.7c7.9-0.4,15.1,4.7,17.2,12.4
		l10.2,37.5c0.9,3.3-1,6.6-4.3,7.5l-28.9,7.8C875.1,672.6,873.2,672.3,871.7,671.2z"/>
	<circle class="st5" cx="844.7" cy="538.2" r="33.4"/>
	<path class="st5" d="M723.8,603.7c0.2,0.7,0.3,1.5,0.3,2.2l58.3,33.7l14.2-8.2l15.1,19.8l-30.3,21.6l-66.5-52.5
		c-7.4,2.7-15.6-1-18.3-8.4c-2.7-7.4,1-15.6,8.4-18.3c7.4-2.7,15.6,1,18.3,8.4C723.5,602.6,723.7,603.1,723.8,603.7z"/>
	<path class="st2" d="M784.6,636.7c-0.2-1.8,0.4-3.7,1.8-5l29.7-29.7c6.6-6.6,17.2-6.6,23.8,0c5.6,5.6,6.5,14.4,2.2,21.1l-21.1,32.6
		c-1.8,2.8-5.6,3.6-8.5,1.8l-25.1-16.3C785.8,640.2,784.8,638.6,784.6,636.7z"/>
	<path class="st7" d="M868.3,564.6c-6.2,6.6-17.8,3.1-18.6-6c-0.1-0.7-0.1-1.4,0-2.1c0.4-4,2.7-7.7,2.2-11.9
		c-0.1-1.1-0.5-2.1-1.1-2.9c-5-6.6-16.6,3-21.3-3c-2.9-3.7,0.5-9.5-1.7-13.6c-2.9-5.4-11.5-2.8-16.9-5.7c-6-3.3-5.6-12.5-1.7-18.1
		c4.8-6.8,13.3-10.5,21.6-11c8.3-0.5,16.6,1.7,24.4,4.8c8.9,3.5,17.6,8.2,23.1,16c6.6,9.5,7.3,22.2,4,33.3
		C880.3,550.9,873.4,559.1,868.3,564.6z"/>
	<path class="st6" d="M1139.7,1005H140.3c-0.7,0-1.4-0.6-1.4-1.4s0.6-1.4,1.4-1.4h999.4c0.8,0,1.4,0.6,1.4,1.4
		S1140.5,1005,1139.7,1005z"/>
</g>
</svg>
